<svg id="visual" viewBox="0 0 1920 1080" width="1920" height="1080" xmlns="http://www.w3.org/2000/svg" xmlns:xlink="http://www.w3.org/1999/xlink" version="1.1"><rect x="0" y="0" width="1920" height="1080" fill="#EDF1D6"></rect><defs><linearGradient id="grad1_0" x1="43.8%" y1="0%" x2="100%" y2="100%"><stop offset="14.444444444444446%" stop-color="#9dc08b" stop-opacity="1"></stop><stop offset="85.55555555555554%" stop-color="#9dc08b" stop-opacity="1"></stop></linearGradient></defs><defs><linearGradient id="grad1_1" x1="43.8%" y1="0%" x2="100%" y2="100%"><stop offset="14.444444444444446%" stop-color="#9dc08b" stop-opacity="1"></stop><stop offset="85.55555555555554%" stop-color="#aac794" stop-opacity="1"></stop></linearGradient></defs><defs><linearGradient id="grad1_2" x1="43.8%" y1="0%" x2="100%" y2="100%"><stop offset="14.444444444444446%" stop-color="#b6cd9e" stop-opacity="1"></stop><stop offset="85.55555555555554%" stop-color="#aac794" stop-opacity="1"></stop></linearGradient></defs><defs><linearGradient id="grad1_3" x1="43.8%" y1="0%" x2="100%" y2="100%"><stop offset="14.444444444444446%" stop-color="#b6cd9e" stop-opacity="1"></stop><stop offset="85.55555555555554%" stop-color="#c2d4a9" stop-opacity="1"></stop></linearGradient></defs><defs><linearGradient id="grad1_4" x1="43.8%" y1="0%" x2="100%" y2="100%"><stop offset="14.444444444444446%" stop-color="#cddbb3" stop-opacity="1"></stop><stop offset="85.55555555555554%" stop-color="#c2d4a9" stop-opacity="1"></stop></linearGradient></defs><defs><linearGradient id="grad1_5" x1="43.8%" y1="0%" x2="100%" y2="100%"><stop offset="14.444444444444446%" stop-color="#cddbb3" stop-opacity="1"></stop><stop offset="85.55555555555554%" stop-color="#d8e2bf" stop-opacity="1"></stop></linearGradient></defs><defs><linearGradient id="grad1_6" x1="43.8%" y1="0%" x2="100%" y2="100%"><stop offset="14.444444444444446%" stop-color="#e3eaca" stop-opacity="1"></stop><stop offset="85.55555555555554%" stop-color="#d8e2bf" stop-opacity="1"></stop></linearGradient></defs><defs><linearGradient id="grad1_7" x1="43.8%" y1="0%" x2="100%" y2="100%"><stop offset="14.444444444444446%" stop-color="#e3eaca" stop-opacity="1"></stop><stop offset="85.55555555555554%" stop-color="#edf1d6" stop-opacity="1"></stop></linearGradient></defs><defs><linearGradient id="grad2_0" x1="0%" y1="0%" x2="56.3%" y2="100%"><stop offset="14.444444444444446%" stop-color="#9dc08b" stop-opacity="1"></stop><stop offset="85.55555555555554%" stop-color="#9dc08b" stop-opacity="1"></stop></linearGradient></defs><defs><linearGradient id="grad2_1" x1="0%" y1="0%" x2="56.3%" y2="100%"><stop offset="14.444444444444446%" stop-color="#aac794" stop-opacity="1"></stop><stop offset="85.55555555555554%" stop-color="#9dc08b" stop-opacity="1"></stop></linearGradient></defs><defs><linearGradient id="grad2_2" x1="0%" y1="0%" x2="56.3%" y2="100%"><stop offset="14.444444444444446%" stop-color="#aac794" stop-opacity="1"></stop><stop offset="85.55555555555554%" stop-color="#b6cd9e" stop-opacity="1"></stop></linearGradient></defs><defs><linearGradient id="grad2_3" x1="0%" y1="0%" x2="56.3%" y2="100%"><stop offset="14.444444444444446%" stop-color="#c2d4a9" stop-opacity="1"></stop><stop offset="85.55555555555554%" stop-color="#b6cd9e" stop-opacity="1"></stop></linearGradient></defs><defs><linearGradient id="grad2_4" x1="0%" y1="0%" x2="56.3%" y2="100%"><stop offset="14.444444444444446%" stop-color="#c2d4a9" stop-opacity="1"></stop><stop offset="85.55555555555554%" stop-color="#cddbb3" stop-opacity="1"></stop></linearGradient></defs><defs><linearGradient id="grad2_5" x1="0%" y1="0%" x2="56.3%" y2="100%"><stop offset="14.444444444444446%" stop-color="#d8e2bf" stop-opacity="1"></stop><stop offset="85.55555555555554%" stop-color="#cddbb3" stop-opacity="1"></stop></linearGradient></defs><defs><linearGradient id="grad2_6" x1="0%" y1="0%" x2="56.3%" y2="100%"><stop offset="14.444444444444446%" stop-color="#d8e2bf" stop-opacity="1"></stop><stop offset="85.55555555555554%" stop-color="#e3eaca" stop-opacity="1"></stop></linearGradient></defs><defs><linearGradient id="grad2_7" x1="0%" y1="0%" x2="56.3%" y2="100%"><stop offset="14.444444444444446%" stop-color="#edf1d6" stop-opacity="1"></stop><stop offset="85.55555555555554%" stop-color="#e3eaca" stop-opacity="1"></stop></linearGradient></defs><g transform="translate(1920, 0)"><path d="M0 1026C-66.5 975.8 -133 925.5 -206.1 902.8C-279.1 880 -358.6 884.7 -403.1 837C-447.6 789.3 -457.1 689.1 -511.9 641.9C-566.6 594.7 -666.6 600.4 -695 554.3C-723.5 508.1 -680.4 410.1 -733.4 353.2C-786.4 296.2 -935.5 280.3 -1000.3 228.3C-1065.1 176.3 -1045.5 88.1 -1026 0L0 0Z" fill="#e8edd0"></path><path d="M0 897.8C-58.2 853.8 -116.4 809.9 -180.3 789.9C-244.2 770 -313.7 774.1 -352.7 732.4C-391.6 690.6 -400 603 -447.9 561.6C-495.8 520.3 -583.3 525.4 -608.2 485C-633 444.6 -595.3 358.9 -641.7 309C-688.1 259.2 -818.6 245.3 -875.2 199.8C-931.9 154.2 -914.8 77.1 -897.7 0L0 0Z" fill="#dee6c4"></path><path d="M0 769.5C-49.9 731.8 -99.8 694.2 -154.5 677.1C-209.3 660 -268.9 663.5 -302.3 627.8C-335.7 592 -342.8 516.8 -383.9 481.4C-425 446 -500 450.3 -521.3 415.7C-542.6 381.1 -510.3 307.6 -550 264.9C-589.8 222.2 -701.6 210.2 -750.2 171.2C-798.8 132.2 -784.1 66.1 -769.5 0L0 0Z" fill="#d3dfb9"></path><path d="M0 641.3C-41.6 609.9 -83.2 578.5 -128.8 564.2C-174.4 550 -224.1 553 -251.9 523.1C-279.7 493.3 -285.7 430.7 -319.9 401.2C-354.1 371.7 -416.6 375.3 -434.4 346.4C-452.2 317.6 -425.2 256.3 -458.4 220.7C-491.5 185.1 -584.7 175.2 -625.2 142.7C-665.7 110.2 -653.5 55.1 -641.2 0L0 0Z" fill="#c8d8ae"></path><path d="M0 513C-33.3 487.9 -66.5 462.8 -103 451.4C-139.5 440 -179.3 442.4 -201.5 418.5C-223.8 394.6 -228.6 344.5 -255.9 320.9C-283.3 297.3 -333.3 300.2 -347.5 277.1C-361.7 254.1 -340.2 205.1 -366.7 176.6C-393.2 148.1 -467.7 140.2 -500.1 114.2C-532.5 88.1 -522.8 44.1 -513 0L0 0Z" fill="#bcd1a4"></path><path d="M0 384.8C-24.9 365.9 -49.9 347.1 -77.3 338.5C-104.6 330 -134.5 331.8 -151.2 313.9C-167.8 296 -171.4 258.4 -192 240.7C-212.5 223 -250 225.2 -260.6 207.9C-271.3 190.6 -255.1 153.8 -275 132.4C-294.9 111.1 -350.8 105.1 -375.1 85.6C-399.4 66.1 -392.1 33.1 -384.7 0L0 0Z" fill="#b0ca99"></path><path d="M0 256.5C-16.6 243.9 -33.3 231.4 -51.5 225.7C-69.8 220 -89.6 221.2 -100.8 209.3C-111.9 197.3 -114.3 172.3 -128 160.5C-141.7 148.7 -166.7 150.1 -173.8 138.6C-180.9 127 -170.1 102.5 -183.3 88.3C-196.6 74.1 -233.9 70.1 -250.1 57.1C-266.3 44.1 -261.4 22 -256.5 0L0 0Z" fill="#a3c390"></path><path d="M0 128.3C-8.3 122 -16.6 115.7 -25.8 112.8C-34.9 110 -44.8 110.6 -50.4 104.6C-55.9 98.7 -57.1 86.1 -64 80.2C-70.8 74.3 -83.3 75.1 -86.9 69.3C-90.4 63.5 -85 51.3 -91.7 44.1C-98.3 37 -116.9 35 -125 28.5C-133.1 22 -130.7 11 -128.2 0L0 0Z" fill="#9dc08b"></path></g><g transform="translate(0, 1080)"><path d="M0 -1026C81.3 -1022.9 162.6 -1019.7 218.3 -956.4C273.9 -893.1 303.9 -769.5 335.8 -697.3C367.7 -625.2 401.6 -604.3 482 -604.4C562.4 -604.4 689.3 -625.3 731.8 -583.6C774.3 -541.9 732.3 -437.6 774.8 -373.1C817.3 -308.6 944.3 -283.9 1000.3 -228.3C1056.2 -172.7 1041.1 -86.4 1026 0L0 0Z" fill="#e8edd0"></path><path d="M0 -897.7C71.2 -895 142.3 -892.3 191 -836.9C239.7 -781.4 265.9 -673.3 293.8 -610.2C321.8 -547 351.4 -528.8 421.7 -528.8C492.1 -528.8 603.1 -547.1 640.3 -510.6C677.5 -474.2 640.8 -382.9 678 -326.5C715.2 -270.1 826.3 -248.4 875.2 -199.8C924.2 -151.1 911 -75.6 897.8 0L0 0Z" fill="#dee6c4"></path><path d="M0 -769.5C61 -767.2 122 -764.8 163.7 -717.3C205.5 -669.8 227.9 -577.2 251.9 -523C275.8 -468.9 301.2 -453.2 361.5 -453.3C421.8 -453.3 517 -469 548.8 -437.7C580.7 -406.4 549.2 -328.2 581.1 -279.9C613 -231.5 708.3 -212.9 750.2 -171.2C792.2 -129.6 780.8 -64.8 769.5 0L0 0Z" fill="#d3dfb9"></path><path d="M0 -641.2C50.8 -639.3 101.7 -637.3 136.4 -597.8C171.2 -558.2 190 -481 209.9 -435.8C229.8 -390.7 251 -377.7 301.2 -377.7C351.5 -377.7 430.8 -390.8 457.4 -364.7C483.9 -338.7 457.7 -273.5 484.3 -233.2C510.8 -192.9 590.2 -177.4 625.2 -142.7C660.1 -108 650.7 -54 641.3 0L0 0Z" fill="#c8d8ae"></path><path d="M0 -513C40.7 -511.4 81.3 -509.9 109.1 -478.2C137 -446.5 152 -384.8 167.9 -348.7C183.9 -312.6 200.8 -302.2 241 -302.2C281.2 -302.2 344.7 -312.6 365.9 -291.8C387.1 -271 366.2 -218.8 387.4 -186.6C408.7 -154.3 472.2 -141.9 500.1 -114.2C528.1 -86.4 520.6 -43.2 513 0L0 0Z" fill="#bcd1a4"></path><path d="M0 -384.7C30.5 -383.6 61 -382.4 81.9 -358.7C102.7 -334.9 114 -288.6 125.9 -261.5C137.9 -234.4 150.6 -226.6 180.7 -226.6C210.9 -226.6 258.5 -234.5 274.4 -218.8C290.4 -203.2 274.6 -164.1 290.6 -139.9C306.5 -115.7 354.1 -106.5 375.1 -85.6C396.1 -64.8 390.4 -32.4 384.8 0L0 0Z" fill="#b0ca99"></path><path d="M0 -256.5C20.3 -255.7 40.7 -254.9 54.6 -239.1C68.5 -223.3 76 -192.4 84 -174.3C91.9 -156.3 100.4 -151.1 120.5 -151.1C140.6 -151.1 172.3 -156.3 182.9 -145.9C193.6 -135.5 183.1 -109.4 193.7 -93.3C204.3 -77.2 236.1 -71 250.1 -57.1C264.1 -43.2 260.3 -21.6 256.5 0L0 0Z" fill="#a3c390"></path><path d="M0 -128.2C10.2 -127.9 20.3 -127.5 27.3 -119.6C34.2 -111.6 38 -96.2 42 -87.2C46 -78.1 50.2 -75.5 60.2 -75.5C70.3 -75.5 86.2 -78.2 91.5 -72.9C96.8 -67.7 91.5 -54.7 96.9 -46.6C102.2 -38.6 118 -35.5 125 -28.5C132 -21.6 130.1 -10.8 128.3 0L0 0Z" fill="#9dc08b"></path></g></svg>